<mxfile host="app.diagrams.net" agent="Mozilla/5.0 (X11; Ubuntu; Linux x86_64; rv:143.0) Gecko/20100101 Firefox/143.0" version="28.2.5">
  <diagram id="LeopardWebStore" name="Architecture v2">
    <mxGraphModel dx="987" dy="550" grid="1" gridSize="10" guides="1" tooltips="1" connect="1" arrows="1" fold="1" page="1" pageScale="1" pageWidth="1200" pageHeight="800" math="0" shadow="0">
      <root>
        <mxCell id="0" />
        <mxCell id="1" parent="0" />
        <mxCell id="user" value="User (Guest / Registered / Admin)" style="shape=ellipse;whiteSpace=wrap;fillColor=#f8cecc;strokeColor=#b85450;" parent="1" vertex="1">
          <mxGeometry x="50" width="180" height="80" as="geometry" />
        </mxCell>
        <mxCell id="frontend" value="Frontend (React / HTML, CSS, JS)" style="shape=rectangle;whiteSpace=wrap;rounded=1;fillColor=#dae8fc;strokeColor=#6c8ebf;" parent="1" vertex="1">
          <mxGeometry x="30" y="260" width="220" height="100" as="geometry" />
        </mxCell>
        <mxCell id="backend" value="Backend (Django + DRF)" style="shape=rectangle;whiteSpace=wrap;rounded=1;fillColor=#ffe6cc;strokeColor=#d79b00;" parent="1" vertex="1">
          <mxGeometry x="450" y="10" width="220" height="100" as="geometry" />
        </mxCell>
        <mxCell id="database" value="Database (PostgreSQL)" style="shape=cylinder3;whiteSpace=wrap;fillColor=#d5e8d4;strokeColor=#82b366;" parent="1" vertex="1">
          <mxGeometry x="740" y="340" width="160" height="120" as="geometry" />
        </mxCell>
        <mxCell id="arrow_uf" value="Actions: login, browse, add to cart, checkout" style="endArrow=block;html=1;strokeColor=#000000;" parent="1" source="user" target="frontend" edge="1">
          <mxGeometry relative="1" as="geometry" />
        </mxCell>
        <mxCell id="arrow_fb" value="HTTP Requests (REST API):&#xa;- Auth (JWT)&#xa;- Products list / details&#xa;- Cart actions&#xa;- Orders" style="endArrow=block;html=1;strokeColor=#000000;" parent="1" source="frontend" target="backend" edge="1">
          <mxGeometry x="0.3704" y="-85" relative="1" as="geometry">
            <mxPoint as="offset" />
          </mxGeometry>
        </mxCell>
        <mxCell id="arrow_bf" value="JSON Responses:&#xa;- Auth tokens&#xa;- Product data&#xa;- Cart state&#xa;- Order status" style="endArrow=block;html=1;strokeColor=#000000;dashed=1;dashPattern=8 8;startArrow=open;startFill=0;shadow=0;jumpStyle=none;" parent="1" source="backend" target="frontend" edge="1">
          <mxGeometry x="-0.2379" y="-78" relative="1" as="geometry">
            <mxPoint as="offset" />
          </mxGeometry>
        </mxCell>
        <mxCell id="arrow_bd" value="SQL / ORM queries:&#xa;- SELECT products, categories&#xa;- INSERT orders, cart items&#xa;- UPDATE cart, stock&#xa;- DELETE items" style="endArrow=block;html=1;strokeColor=#000000;" parent="1" source="backend" target="database" edge="1">
          <mxGeometry relative="1" as="geometry" />
        </mxCell>
      </root>
    </mxGraphModel>
  </diagram>
</mxfile>
